<svg xmlns="http://www.w3.org/2000/svg" viewBox="0 0 32 32" fill="none" role="img" aria-label="GrowthMCP">
  <defs>
    <linearGradient id="gm-face" x1="16" y1="2" x2="16" y2="16" gradientUnits="userSpaceOnUse">
      <stop stop-color="#2A2F38"/>
      <stop offset="1" stop-color="#12161C"/>
    </linearGradient>
  </defs>

  <!-- Cursor-style geometric mark -->
  <path
    d="M16 1.8 3.9 8.6c-.5.28-.8.8-.8 1.36v12.08c0 .56.3 1.08.8 1.36L16 30.2l12.1-6.8c.5-.28.8-.8.8-1.36V9.96c0-.56-.3-1.08-.8-1.36L16 1.8Z"
    fill="#0B0F14"
  />
  <path
    d="M16 1.8 3.9 8.6c-.5.28-.8.8-.8 1.36v.35L16 16.55 28.9 9.96v-.35c0-.56-.3-1.08-.8-1.36L16 1.8Z"
    fill="url(#gm-face)"
  />

  <!-- Google Trends ascending stroke -->
  <path
    d="M7.8 21.6c2.6-1.2 4.4-5 6.8-5 2.3 0 3.5 3.7 5.7 3.7"
    stroke="#4285F4"
    stroke-width="2.55"
    stroke-linecap="round"
    stroke-linejoin="round"
  />
  <path
    d="M20.3 20.3c1.5 0 2.7-2.35 4-3.6"
    stroke="#EA4335"
    stroke-width="2.55"
    stroke-linecap="round"
    stroke-linejoin="round"
  />
  <path
    d="M24.3 16.7c1-1.2 1.85-2.35 3.05-3.15"
    stroke="#FBBC04"
    stroke-width="2.55"
    stroke-linecap="round"
    stroke-linejoin="round"
  />
  <path
    d="M25.6 14.8c.75-1.15 1.55-2.1 2.55-2.9"
    stroke="#34A853"
    stroke-width="2.55"
    stroke-linecap="round"
  />

  <!-- Cursor tip as Trends arrowhead -->
  <path d="M25.85 8.55 29.95 7.15 28.1 11.35Z" fill="#34A853"/>
</svg>
